{
	"asset":{
		"version":"2.0"
	},
	"scenes":[{
		"nodes":[0,
		15]
	}],
	"nodes":[{
		"translation":[0.0,
		0.0,
		0.0],
		"rotation":[0.0,
		0.0,
		0.0,
		1.0],
		"scale":[1.0,
		1.0,
		-1.0],
		"name":"91-2.obj",
		"children":[1,
		4,
		5,
		6,
		7,
		8,
		9,
		10,
		11,
		12,
		13,
		14]
	},
	{
		"translation":[401.7240295410156,
		48.73225784301758,
		-388.83209228515627],
		"rotation":[0.0,
		0.0,
		0.0,
		-1.0],
		"scale":[1.0,
		1.0,
		1.0],
		"name":"v8.2",
		"children":[2,
		3]
	},
	{
		"translation":[-0.0030452886130660774,
		7.2271199226379398,
		-44.43570327758789],
		"rotation":[0.0,
		0.0,
		0.0,
		-1.0],
		"scale":[1.0,
		1.0,
		1.0],
		"mesh":0,
		"name":"v8.2_y"
	},
	{
		"translation":[0.0030452886130660774,
		-7.2271199226379398,
		44.43570327758789],
		"rotation":[0.0,
		0.0,
		0.0,
		-1.0],
		"scale":[1.0,
		1.0,
		1.0],
		"mesh":1,
		"name":"v8.2"
	},
	{
		"translation":[0.0,
		-2.910740852355957,
		0.0],
		"rotation":[0.0,
		0.0,
		0.0,
		-1.0],
		"scale":[1.0,
		1.0,
		1.0],
		"mesh":2,
		"name":"malu"
	},
	{
		"translation":[-1451.3150634765625,
		227.79034423828126,
		-134.94529724121095],
		"rotation":[0.0,
		0.0,
		0.0,
		-1.0],
		"scale":[1.0,
		1.0,
		1.0],
		"mesh":3,
		"name":"d_dengdai.1"
	},
	{
		"translation":[-784.6373901367188,
		0.0,
		-386.1374206542969],
		"rotation":[0.0,
		0.0,
		0.0,
		-1.0],
		"scale":[1.0,
		1.0,
		1.0],
		"mesh":4,
		"name":"bj"
	},
	{
		"mesh":5,
		"name":"map_buildings"
	},
	{
		"mesh":6,
		"name":"map_buildings.1"
	},
	{
		"mesh":7,
		"name":"map_water"
	},
	{
		"mesh":8,
		"name":"map_roads_primary"
	},
	{
		"mesh":9,
		"name":"map_roads_secondary"
	},
	{
		"translation":[-782.3862915039063,
		1.392469048500061,
		-500.5965881347656],
		"rotation":[0.0,
		0.0,
		0.0,
		-1.0],
		"scale":[1.0,
		1.0,
		1.0],
		"mesh":10,
		"name":"map_roads_residential.1"
	},
	{
		"mesh":11,
		"name":"map_roads_residential"
	},
	{
		"mesh":12,
		"name":"map_roads_service"
	},
	{
		"translation":[-522.0285034179688,
		0.0,
		382.8804016113281],
		"rotation":[0.0,
		-0.6906825304031372,
		0.0,
		0.7231581211090088],
		"scale":[1.0,
		1.0,
		-1.0],
		"name":"zhulou",
		"children":[16,
		17,
		18,
		19,
		20]
	},
	{
		"translation":[0.06445872038602829,
		0.4630250334739685,
		0.4064595699310303],
		"rotation":[0.0,
		0.6906825304031372,
		0.0,
		-0.7231581211090088],
		"scale":[1.0,
		1.0,
		1.0],
		"mesh":13,
		"name":"dizuo"
	},
	{
		"translation":[-9.948841094970704,
		497.50244140625,
		1.497795581817627],
		"rotation":[0.0,
		0.7071067690849304,
		0.0,
		-0.7071067690849304],
		"scale":[1.0,
		1.0,
		1.0],
		"mesh":14,
		"name":"louceng"
	},
	{
		"translation":[-9.380855560302735,
		496.3577880859375,
		1.575811743736267],
		"rotation":[0.0,
		0.7071067690849304,
		0.0,
		-0.7071067690849304],
		"scale":[1.0,
		1.0,
		1.0],
		"mesh":15,
		"name":"boli"
	},
	{
		"translation":[28.143056869506837,
		946.5636596679688,
		88.26783752441406],
		"rotation":[0.0,
		1.0,
		0.0,
		-6.123234262925839e-17],
		"scale":[1.0,
		1.0,
		1.0],
		"mesh":16,
		"name":"logo"
	},
	{
		"translation":[-12.156142234802246,
		5.894394874572754,
		1.497795581817627],
		"rotation":[0.0,
		0.7071067690849304,
		0.0,
		-0.7071067690849304],
		"scale":[1.0,
		1.0,
		1.0],
		"mesh":17,
		"name":"zhulimian1"
	}],
	"meshes":[{
		"primitives":[{
			"attributes":{
				"POSITION":1
			},
			"indices":0,
			"material":0
		}]
	},
	{
		"primitives":[{
			"attributes":{
				"POSITION":3
			},
			"indices":2,
			"material":1
		}]
	},
	{
		"primitives":[{
			"attributes":{
				"POSITION":5
			},
			"indices":4,
			"material":2
		}]
	},
	{
		"primitives":[{
			"attributes":{
				"POSITION":7
			},
			"indices":6,
			"material":3
		}]
	},
	{
		"primitives":[{
			"attributes":{
				"POSITION":9
			},
			"indices":8,
			"material":4
		}]
	},
	{
		"primitives":[{
			"attributes":{
				"POSITION":11
			},
			"indices":10,
			"material":5
		}]
	},
	{
		"primitives":[{
			"attributes":{
				"POSITION":13
			},
			"indices":12,
			"material":6
		}]
	},
	{
		"primitives":[{
			"attributes":{
				"POSITION":15
			},
			"indices":14,
			"material":7
		}]
	},
	{
		"primitives":[{
			"attributes":{
				"POSITION":17
			},
			"indices":16,
			"material":8
		}]
	},
	{
		"primitives":[{
			"attributes":{
				"POSITION":19
			},
			"indices":18,
			"material":9
		}]
	},
	{
		"primitives":[{
			"attributes":{
				"POSITION":21
			},
			"indices":20,
			"material":10
		}]
	},
	{
		"primitives":[{
			"attributes":{
				"POSITION":23
			},
			"indices":22,
			"material":11
		}]
	},
	{
		"primitives":[{
			"attributes":{
				"POSITION":25
			},
			"indices":24,
			"material":12
		}]
	},
	{
		"primitives":[{
			"attributes":{
				"POSITION":27
			},
			"indices":26,
			"material":13
		}]
	},
	{
		"primitives":[{
			"attributes":{
				"POSITION":29
			},
			"indices":28,
			"material":14
		}]
	},
	{
		"primitives":[{
			"attributes":{
				"POSITION":31
			},
			"indices":30,
			"material":15
		}]
	},
	{
		"primitives":[{
			"attributes":{
				"POSITION":33
			},
			"indices":32,
			"material":16
		}]
	},
	{
		"primitives":[{
			"attributes":{
				"POSITION":35
			},
			"indices":34,
			"material":17
		}]
	}],
	"accessors":[{
		"bufferView":0,
		"type":"SCALAR",
		"componentType":5123,
		"count":1752,
		"min":[0],
		"byteOffset":0,
		"max":[331]
	},
	{
		"bufferView":1,
		"type":"VEC3",
		"componentType":5126,
		"count":332,
		"min":[-626.2855834960938,
		-14.549590110778809,
		-276.5518493652344],
		"byteOffset":0,
		"max":[626.2855834960938,
		14.549590110778809,
		276.5518493652344]
	},
	{
		"bufferView":2,
		"type":"SCALAR",
		"componentType":5123,
		"count":615,
		"min":[0],
		"byteOffset":0,
		"max":[141]
	},
	{
		"bufferView":3,
		"type":"VEC3",
		"componentType":5126,
		"count":142,
		"min":[-625.2578125,
		-41.5051383972168,
		-364.37969970703127],
		"byteOffset":0,
		"max":[625.2578125,
		41.5051383972168,
		186.6461944580078]
	},
	{
		"bufferView":4,
		"type":"SCALAR",
		"componentType":5123,
		"count":1080,
		"min":[0],
		"byteOffset":0,
		"max":[179]
	},
	{
		"bufferView":5,
		"type":"VEC3",
		"componentType":5126,
		"count":180,
		"min":[-7225.271484375,
		-4.295230865478516,
		-2077.988037109375],
		"byteOffset":0,
		"max":[7984.341796875,
		6.7727766036987309,
		8268.3193359375]
	},
	{
		"bufferView":6,
		"type":"SCALAR",
		"componentType":5123,
		"count":46224,
		"min":[0],
		"byteOffset":0,
		"max":[8623]
	},
	{
		"bufferView":7,
		"type":"VEC3",
		"componentType":5126,
		"count":8624,
		"min":[-6450.5830078125,
		-210.328369140625,
		-7306.1982421875],
		"byteOffset":0,
		"max":[6450.5830078125,
		210.328369140625,
		7306.1982421875]
	},
	{
		"bufferView":8,
		"type":"SCALAR",
		"componentType":5123,
		"count":2400,
		"min":[0],
		"byteOffset":0,
		"max":[440]
	},
	{
		"bufferView":9,
		"type":"VEC3",
		"componentType":5126,
		"count":441,
		"min":[-8014.0068359375,
		0.0,
		-8014.0068359375],
		"byteOffset":0,
		"max":[8014.0068359375,
		0.0,
		8014.0068359375]
	},
	{
		"bufferView":10,
		"type":"SCALAR",
		"componentType":5123,
		"count":92790,
		"min":[0],
		"byteOffset":0,
		"max":[21894]
	},
	{
		"bufferView":11,
		"type":"VEC3",
		"componentType":5126,
		"count":21895,
		"min":[-8712.0888671875,
		-5.264784376686482e-13,
		-8689.6162109375],
		"byteOffset":0,
		"max":[7295.337890625,
		807.921875,
		7483.35595703125]
	},
	{
		"bufferView":12,
		"type":"SCALAR",
		"componentType":5123,
		"count":2952,
		"min":[0],
		"byteOffset":0,
		"max":[679]
	},
	{
		"bufferView":13,
		"type":"VEC3",
		"componentType":5126,
		"count":680,
		"min":[-3075.148193359375,
		46.4539794921875,
		-5400.3984375],
		"byteOffset":0,
		"max":[1433.8355712890625,
		186.46836853027345,
		-213.66477966308595]
	},
	{
		"bufferView":14,
		"type":"SCALAR",
		"componentType":5123,
		"count":402,
		"min":[0],
		"byteOffset":0,
		"max":[135]
	},
	{
		"bufferView":15,
		"type":"VEC3",
		"componentType":5126,
		"count":136,
		"min":[-20303.37109375,
		1.2387727499008179,
		-11261.9208984375],
		"byteOffset":0,
		"max":[30673.9765625,
		1.2387727499008179,
		19796.4296875]
	},
	{
		"bufferView":16,
		"type":"SCALAR",
		"componentType":5123,
		"count":10326,
		"min":[0],
		"byteOffset":0,
		"max":[5153]
	},
	{
		"bufferView":17,
		"type":"VEC3",
		"componentType":5126,
		"count":5154,
		"min":[-8740.595703125,
		0.5185523629188538,
		-7445.40966796875],
		"byteOffset":0,
		"max":[7176.63134765625,
		0.5185523629188538,
		7203.4921875]
	},
	{
		"bufferView":18,
		"type":"SCALAR",
		"componentType":5123,
		"count":11226,
		"min":[0],
		"byteOffset":0,
		"max":[5461]
	},
	{
		"bufferView":19,
		"type":"VEC3",
		"componentType":5126,
		"count":5462,
		"min":[-8722.9404296875,
		0.5602015852928162,
		-8100.75048828125],
		"byteOffset":0,
		"max":[7263.9482421875,
		0.5602015852928162,
		7636.18212890625]
	},
	{
		"bufferView":20,
		"type":"SCALAR",
		"componentType":5123,
		"count":2412,
		"min":[0],
		"byteOffset":0,
		"max":[1007]
	},
	{
		"bufferView":21,
		"type":"VEC3",
		"componentType":5126,
		"count":1008,
		"min":[-7938.16845703125,
		-0.4656902849674225,
		-7922.8115234375],
		"byteOffset":0,
		"max":[7938.16845703125,
		0.4656902849674225,
		7922.8115234375]
	},
	{
		"bufferView":22,
		"type":"SCALAR",
		"componentType":5123,
		"count":1428,
		"min":[0],
		"byteOffset":0,
		"max":[575]
	},
	{
		"bufferView":23,
		"type":"VEC3",
		"componentType":5126,
		"count":576,
		"min":[-8457.36328125,
		1.8581593036651612,
		-8247.9501953125],
		"byteOffset":0,
		"max":[7224.69921875,
		1.8581593036651612,
		7196.658203125]
	},
	{
		"bufferView":24,
		"type":"SCALAR",
		"componentType":5123,
		"count":1422,
		"min":[0],
		"byteOffset":0,
		"max":[625]
	},
	{
		"bufferView":25,
		"type":"VEC3",
		"componentType":5126,
		"count":626,
		"min":[-8764.8701171875,
		1.8581593036651612,
		-8726.060546875],
		"byteOffset":0,
		"max":[7064.306640625,
		1.8581593036651612,
		7693.5126953125]
	},
	{
		"bufferView":26,
		"type":"SCALAR",
		"componentType":5123,
		"count":1476,
		"min":[0],
		"byteOffset":0,
		"max":[247]
	},
	{
		"bufferView":27,
		"type":"VEC3",
		"componentType":5126,
		"count":248,
		"min":[-191.8443603515625,
		-9.955981254577637,
		-208.87985229492188],
		"byteOffset":0,
		"max":[191.8443603515625,
		9.955981254577637,
		208.87985229492188]
	},
	{
		"bufferView":28,
		"type":"SCALAR",
		"componentType":5123,
		"count":37278,
		"min":[0],
		"byteOffset":0,
		"max":[7499]
	},
	{
		"bufferView":29,
		"type":"VEC3",
		"componentType":5126,
		"count":7500,
		"min":[-87.77767181396485,
		-465.6837158203125,
		-87.64395141601563],
		"byteOffset":0,
		"max":[87.77767181396485,
		461.09039306640627,
		87.64395141601563]
	},
	{
		"bufferView":30,
		"type":"SCALAR",
		"componentType":5123,
		"count":144,
		"min":[0],
		"byteOffset":0,
		"max":[31]
	},
	{
		"bufferView":31,
		"type":"VEC3",
		"componentType":5126,
		"count":32,
		"min":[-85.22088623046875,
		-486.6719970703125,
		-85.02641296386719],
		"byteOffset":0,
		"max":[85.22088623046875,
		486.6719970703125,
		85.02641296386719]
	},
	{
		"bufferView":32,
		"type":"SCALAR",
		"componentType":5123,
		"count":6864,
		"min":[0],
		"byteOffset":0,
		"max":[2299]
	},
	{
		"bufferView":33,
		"type":"VEC3",
		"componentType":5126,
		"count":2300,
		"min":[-28.97030258178711,
		-11.262069702148438,
		-2.8878297805786135],
		"byteOffset":0,
		"max":[28.97030258178711,
		11.262069702148438,
		2.8878297805786135]
	},
	{
		"bufferView":34,
		"type":"SCALAR",
		"componentType":5123,
		"count":70758,
		"min":[0],
		"byteOffset":0,
		"max":[11794]
	},
	{
		"bufferView":35,
		"type":"VEC3",
		"componentType":5126,
		"count":11795,
		"min":[-85.37168884277344,
		0.0,
		-85.37168884277344],
		"byteOffset":0,
		"max":[85.37168884277344,
		994.760009765625,
		85.37168884277344]
	}],
	"bufferViews":[{
		"buffer":0,
		"byteOffset":0,
		"byteLength":3504,
		"target":34963
	},
	{
		"buffer":0,
		"byteOffset":3504,
		"byteLength":3984,
		"target":34962
	},
	{
		"buffer":1,
		"byteOffset":0,
		"byteLength":1230,
		"target":34963
	},
	{
		"buffer":1,
		"byteOffset":1232,
		"byteLength":1704,
		"target":34962
	},
	{
		"buffer":2,
		"byteOffset":0,
		"byteLength":2160,
		"target":34963
	},
	{
		"buffer":2,
		"byteOffset":2160,
		"byteLength":2160,
		"target":34962
	},
	{
		"buffer":3,
		"byteOffset":0,
		"byteLength":92448,
		"target":34963
	},
	{
		"buffer":3,
		"byteOffset":92448,
		"byteLength":103488,
		"target":34962
	},
	{
		"buffer":4,
		"byteOffset":0,
		"byteLength":4800,
		"target":34963
	},
	{
		"buffer":4,
		"byteOffset":4800,
		"byteLength":5292,
		"target":34962
	},
	{
		"buffer":5,
		"byteOffset":0,
		"byteLength":185580,
		"target":34963
	},
	{
		"buffer":5,
		"byteOffset":185580,
		"byteLength":262740,
		"target":34962
	},
	{
		"buffer":6,
		"byteOffset":0,
		"byteLength":5904,
		"target":34963
	},
	{
		"buffer":6,
		"byteOffset":5904,
		"byteLength":8160,
		"target":34962
	},
	{
		"buffer":7,
		"byteOffset":0,
		"byteLength":804,
		"target":34963
	},
	{
		"buffer":7,
		"byteOffset":804,
		"byteLength":1632,
		"target":34962
	},
	{
		"buffer":8,
		"byteOffset":0,
		"byteLength":20652,
		"target":34963
	},
	{
		"buffer":8,
		"byteOffset":20652,
		"byteLength":61848,
		"target":34962
	},
	{
		"buffer":9,
		"byteOffset":0,
		"byteLength":22452,
		"target":34963
	},
	{
		"buffer":9,
		"byteOffset":22452,
		"byteLength":65544,
		"target":34962
	},
	{
		"buffer":10,
		"byteOffset":0,
		"byteLength":4824,
		"target":34963
	},
	{
		"buffer":10,
		"byteOffset":4824,
		"byteLength":12096,
		"target":34962
	},
	{
		"buffer":11,
		"byteOffset":0,
		"byteLength":2856,
		"target":34963
	},
	{
		"buffer":11,
		"byteOffset":2856,
		"byteLength":6912,
		"target":34962
	},
	{
		"buffer":12,
		"byteOffset":0,
		"byteLength":2844,
		"target":34963
	},
	{
		"buffer":12,
		"byteOffset":2844,
		"byteLength":7512,
		"target":34962
	},
	{
		"buffer":13,
		"byteOffset":0,
		"byteLength":2952,
		"target":34963
	},
	{
		"buffer":13,
		"byteOffset":2952,
		"byteLength":2976,
		"target":34962
	},
	{
		"buffer":14,
		"byteOffset":0,
		"byteLength":74556,
		"target":34963
	},
	{
		"buffer":14,
		"byteOffset":74556,
		"byteLength":90000,
		"target":34962
	},
	{
		"buffer":15,
		"byteOffset":0,
		"byteLength":288,
		"target":34963
	},
	{
		"buffer":15,
		"byteOffset":288,
		"byteLength":384,
		"target":34962
	},
	{
		"buffer":16,
		"byteOffset":0,
		"byteLength":13728,
		"target":34963
	},
	{
		"buffer":16,
		"byteOffset":13728,
		"byteLength":27600,
		"target":34962
	},
	{
		"buffer":17,
		"byteOffset":0,
		"byteLength":141516,
		"target":34963
	},
	{
		"buffer":17,
		"byteOffset":141516,
		"byteLength":141540,
		"target":34962
	}],
	"buffers":[{
		"uri":"data:application/octet-stream;base64,",
		"byteLength":7488
	},
	{
		"uri":"data:application/octet-stream;base64,",
		"byteLength":2936
	},
	{
		"uri":"data:application/octet-stream;base64,",
		"byteLength":4320
	},
	{
		"uri":"data:application/octet-stream;base64,",
		"byteLength":195936
	},
	{
		"uri":"data:application/octet-stream;base64,",
		"byteLength":10092
	},
	{
		"uri":"data:application/octet-stream;base64,",
		"byteLength":448320
	},
	{
		"uri":"data:application/octet-stream;base64,",
		"byteLength":14064
	},
	{
		"uri":"data:application/octet-stream;base64,",
		"byteLength":2436
	},
	{
		"uri":"data:application/octet-stream;base64,",
		"byteLength":82500
	},
	{
		"uri":"data:application/octet-stream;base64,",
		"byteLength":87996
	},
	{
		"uri":"data:application/octet-stream;base64,",
		"byteLength":16920
	},
	{
		"uri":"data:application/octet-stream;base64,",
		"byteLength":9768
	},
	{
		"uri":"data:application/octet-stream;base64,",
		"byteLength":10356
	},
	{
		"uri":"data:application/octet-stream;base64,",
		"byteLength":5928
	},
	{
		"uri":"data:application/octet-stream;base64,",
		"byteLength":164556
	},
	{
		"uri":"data:application/octet-stream;base64,",
		"byteLength":672
	},
	{
		"uri":"data:application/octet-stream;base64,",
		"byteLength":41328
	},
	{
		"uri":"data:application/octet-stream;base64,",
		"byteLength":283056
	}],
	"materials":[{
		"pbrMetallicRoughness":{
			"baseColorFactor":[0.8,
			0.8,
			0.8,
			1.0],
			"metallicFactor":0.0,
			"roughnessFactor":0.5
		},
		"emissiveFactor":[0.0,
		0.0,
		0.0],
		"alphaMode":"OPAQUE",
		"doubleSided":true
	},
	{
		"pbrMetallicRoughness":{
			"baseColorFactor":[0.8,
			0.8,
			0.8,
			1.0],
			"metallicFactor":0.0,
			"roughnessFactor":0.5
		},
		"emissiveFactor":[0.0,
		0.0,
		0.0],
		"alphaMode":"OPAQUE",
		"doubleSided":true
	},
	{
		"pbrMetallicRoughness":{
			"baseColorFactor":[0.8,
			0.8,
			0.8,
			1.0],
			"metallicFactor":0.0,
			"roughnessFactor":0.5
		},
		"emissiveFactor":[0.0,
		0.0,
		0.0],
		"alphaMode":"OPAQUE",
		"doubleSided":true
	},
	{
		"pbrMetallicRoughness":{
			"baseColorFactor":[0.8,
			0.8,
			0.8,
			1.0],
			"metallicFactor":0.0,
			"roughnessFactor":0.5
		},
		"emissiveFactor":[0.0,
		0.0,
		0.0],
		"alphaMode":"OPAQUE",
		"doubleSided":true
	},
	{
		"pbrMetallicRoughness":{
			"baseColorFactor":[0.8,
			0.8,
			0.8,
			1.0],
			"metallicFactor":0.0,
			"roughnessFactor":0.5
		},
		"emissiveFactor":[0.0,
		0.0,
		0.0],
		"alphaMode":"OPAQUE",
		"doubleSided":true
	},
	{
		"pbrMetallicRoughness":{
			"baseColorFactor":[0.8,
			0.8,
			0.8,
			1.0],
			"metallicFactor":0.0,
			"roughnessFactor":0.5
		},
		"emissiveFactor":[0.0,
		0.0,
		0.0],
		"alphaMode":"OPAQUE",
		"doubleSided":true
	},
	{
		"pbrMetallicRoughness":{
			"baseColorFactor":[0.8,
			0.8,
			0.8,
			1.0],
			"metallicFactor":0.0,
			"roughnessFactor":0.5
		},
		"emissiveFactor":[0.0,
		0.0,
		0.0],
		"alphaMode":"OPAQUE",
		"doubleSided":true
	},
	{
		"pbrMetallicRoughness":{
			"baseColorFactor":[0.8,
			0.8,
			0.8,
			1.0],
			"metallicFactor":0.0,
			"roughnessFactor":0.5
		},
		"emissiveFactor":[0.0,
		0.0,
		0.0],
		"alphaMode":"OPAQUE",
		"doubleSided":true
	},
	{
		"pbrMetallicRoughness":{
			"baseColorFactor":[0.8,
			0.8,
			0.8,
			1.0],
			"metallicFactor":0.0,
			"roughnessFactor":0.5
		},
		"emissiveFactor":[0.0,
		0.0,
		0.0],
		"alphaMode":"OPAQUE",
		"doubleSided":true
	},
	{
		"pbrMetallicRoughness":{
			"baseColorFactor":[0.8,
			0.8,
			0.8,
			1.0],
			"metallicFactor":0.0,
			"roughnessFactor":0.5
		},
		"emissiveFactor":[0.0,
		0.0,
		0.0],
		"alphaMode":"OPAQUE",
		"doubleSided":true
	},
	{
		"pbrMetallicRoughness":{
			"baseColorFactor":[0.8,
			0.8,
			0.8,
			1.0],
			"metallicFactor":0.0,
			"roughnessFactor":0.5
		},
		"emissiveFactor":[0.0,
		0.0,
		0.0],
		"alphaMode":"OPAQUE",
		"doubleSided":true
	},
	{
		"pbrMetallicRoughness":{
			"baseColorFactor":[0.8,
			0.8,
			0.8,
			1.0],
			"metallicFactor":0.0,
			"roughnessFactor":0.5
		},
		"emissiveFactor":[0.0,
		0.0,
		0.0],
		"alphaMode":"OPAQUE",
		"doubleSided":true
	},
	{
		"pbrMetallicRoughness":{
			"baseColorFactor":[0.8,
			0.8,
			0.8,
			1.0],
			"metallicFactor":0.0,
			"roughnessFactor":0.5
		},
		"emissiveFactor":[0.0,
		0.0,
		0.0],
		"alphaMode":"OPAQUE",
		"doubleSided":true
	},
	{
		"pbrMetallicRoughness":{
			"baseColorFactor":[0.8,
			0.8,
			0.8,
			1.0],
			"metallicFactor":0.0,
			"roughnessFactor":0.5
		},
		"emissiveFactor":[0.0,
		0.0,
		0.0],
		"alphaMode":"OPAQUE",
		"doubleSided":true
	},
	{
		"pbrMetallicRoughness":{
			"baseColorFactor":[0.8,
			0.8,
			0.8,
			1.0],
			"metallicFactor":0.0,
			"roughnessFactor":0.5
		},
		"emissiveFactor":[0.0,
		0.0,
		0.0],
		"alphaMode":"OPAQUE",
		"doubleSided":true
	},
	{
		"pbrMetallicRoughness":{
			"baseColorFactor":[0.8,
			0.8,
			0.8,
			1.0],
			"metallicFactor":0.0,
			"roughnessFactor":0.5
		},
		"emissiveFactor":[0.0,
		0.0,
		0.0],
		"alphaMode":"OPAQUE",
		"doubleSided":true
	},
	{
		"pbrMetallicRoughness":{
			"baseColorFactor":[0.8,
			0.8,
			0.8,
			1.0],
			"metallicFactor":0.0,
			"roughnessFactor":0.5
		},
		"emissiveFactor":[0.0,
		0.0,
		0.0],
		"alphaMode":"OPAQUE",
		"doubleSided":true
	},
	{
		"pbrMetallicRoughness":{
			"baseColorFactor":[0.8,
			0.8,
			0.8,
			1.0],
			"metallicFactor":0.0,
			"roughnessFactor":0.5
		},
		"emissiveFactor":[0.0,
		0.0,
		0.0],
		"alphaMode":"OPAQUE",
		"doubleSided":true
	}]
}